<svg xmlns="http://www.w3.org/2000/svg" width="150" height="150" fill="none" viewBox="0 0 150 150">
        <rect width="150" height="150" fill="#000" rx="12"/>
        <path fill="#fff" d="M25 25h28.75a2.5 2.5 0 0 1 2.5 2.5v1.25a2.5 2.5 0 0 1-2.5 2.5H25V25Zm68.75 2.5a2.5 2.5 0 0 1 2.5-2.5H125v6.25H96.25a2.5 2.5 0 0 1-2.5-2.5V27.5Z"/>
        <path fill="#fff" d="M31.25 25v28.75a2.5 2.5 0 0 1-2.5 2.5H27.5a2.5 2.5 0 0 1-2.5-2.5V25h6.25Zm-2.5 68.75a2.5 2.5 0 0 1 2.5 2.5V125H25V96.25a2.5 2.5 0 0 1 2.5-2.5h1.25ZM125 25v28.75a2.5 2.5 0 0 1-2.5 2.5h-1.25a2.5 2.5 0 0 1-2.5-2.5V25H125Zm-2.5 68.75a2.5 2.5 0 0 1 2.5 2.5V125h-6.25V96.25a2.5 2.5 0 0 1 2.5-2.5h1.25Z"/>
        <path fill="#fff" d="M25 118.75h28.75a2.5 2.5 0 0 1 2.5 2.5v1.25a2.5 2.5 0 0 1-2.5 2.5H25v-6.25Zm68.75 2.5a2.5 2.5 0 0 1 2.5-2.5H125V125H96.25a2.5 2.5 0 0 1-2.5-2.5v-1.25Zm-22.437-22.5H64.75c-1.417 0-2.354-.23-2.813-.688-.416-.458-.624-1.416-.624-2.874V57.124c0-1.458.208-2.417.624-2.875.459-.458 1.396-.688 2.813-.688h6.563V98.75ZM90.624 90v5.313c0 1.416-.23 2.354-.688 2.812-.458.417-1.416.625-2.874.625h-13.25V90h16.812Zm-3.75-18.438v3.75c0 1.5-.146 2.459-.438 2.876-.291.374-1.124.562-2.5.562H73.814v-7.188h13.062Zm3.125-18v5.313c0 1.417-.23 2.354-.688 2.813-.458.416-1.416.624-2.874.624H73.811v-8.75H90Z"/>
</svg>
